<?xml version="1.0" encoding="utf-8"?>
<!-- Generator: Adobe Illustrator 17.1.0, SVG Export Plug-In . SVG Version: 6.00 Build 0)  -->
<!DOCTYPE svg PUBLIC "-//W3C//DTD SVG 1.1//EN" "http://www.w3.org/Graphics/SVG/1.1/DTD/svg11.dtd">
<svg version="1.1" id="Calque_1" xmlns="http://www.w3.org/2000/svg" xmlns:xlink="http://www.w3.org/1999/xlink" x="0px" y="0px"
	 viewBox="15 69.6 100 35.7" enable-background="new 15 69.6 100 35.7" xml:space="preserve">
<path fill="#55ACEE" d="M18,69.6h94c1.7,0,3,1.3,3,3v29.7c0,1.7-1.3,3-3,3H18c-1.7,0-3-1.3-3-3V72.6C15,71,16.3,69.6,18,69.6z"/>
<text transform="matrix(1 0 0 1 52.142 93.0051)" fill="#FFFFFF" font-family="'Helvetica'" font-size="15.7143">Tweet</text>
<g>
	<path fill="#FFFFFF" d="M44,82.4c-0.6,0.3-1.1,0.4-1.9,0.4c0.6-0.4,1.1-1,1.4-1.7c-0.6,0.3-1.3,0.6-2,0.7c-0.6-0.6-1.4-1-2.3-1
		c-1.7,0-3.1,1.4-3.1,3.1c0,0.3,0,0.4,0.1,0.7c-2.6-0.1-4.9-1.4-6.4-3.3c-0.3,0.4-0.4,1-0.4,1.6c0,1.1,0.6,2,1.4,2.6
		c-0.6,0-1-0.1-1.4-0.4l0,0c0,1.6,1.1,2.7,2.4,3c-0.3,0-0.6,0.1-0.9,0.1c-0.1,0-0.4,0-0.6,0c0.4,1.3,1.6,2.1,2.9,2.1
		c-1,0.9-2.4,1.3-3.9,1.3c-0.3,0-0.4,0-0.7,0c1.4,0.9,3,1.4,4.7,1.4c5.7,0,8.9-4.7,8.9-8.9c0-0.1,0-0.3,0-0.4
		C43,83.5,43.6,82.9,44,82.4z"/>
</g>
</svg>
