<?xml version="1.0" encoding="utf-8"?>
<!-- Generator: Adobe Illustrator 17.1.0, SVG Export Plug-In . SVG Version: 6.00 Build 0)  -->
<!DOCTYPE svg PUBLIC "-//W3C//DTD SVG 1.1//EN" "http://www.w3.org/Graphics/SVG/1.1/DTD/svg11.dtd">
<svg version="1.1" id="Calque_1" xmlns="http://www.w3.org/2000/svg" xmlns:xlink="http://www.w3.org/1999/xlink" x="0px" y="0px"
	 viewBox="15 146.1 960 342.9" enable-background="new 15 146.1 960 342.9" xml:space="preserve">
<path fill="#4C66A4" d="M45,146.1h900c16.6,0,30,13.4,30,30v282.9c0,16.6-13.4,30-30,30H45c-16.6,0-30-13.4-30-30V176.1
	C15,159.5,28.4,146.1,45,146.1z"/>
<g>
	<path fill="#FFFFFF" d="M255,286h-21.9v-13.7c0-5.5,4.1-6.9,5.5-6.9c2.7,0,15.1,0,15.1,0v-23.3h-20.6c-23.3,0-28.8,17.8-28.8,28.8
		V286h-13.7v24.7h13.7c0,31.5,0,68.6,0,68.6h28.8c0,0,0-38.4,0-68.6h19.2L255,286z"/>
</g>
<text transform="matrix(1 0 0 1 374.9909 367.4933)" fill="#FFFFFF" font-family="'Helvetica'" font-size="150.8571">Share</text>
</svg>
